<?xml version="1.0" encoding="UTF-8"?>
<svg viewBox="0 0 480 480" xmlns="http://www.w3.org/2000/svg" xmlns:xlink="http://www.w3.org/1999/xlink">
 <defs>
  <linearGradient id="a">
   <stop stop-color="#c0c0c0" offset="0"/>
   <stop stop-color="#edf1f2" offset=".5"/>
   <stop stop-color="#d1d3d6" offset=".75"/>
   <stop stop-color="#fff" offset="1"/>
  </linearGradient>
  <linearGradient id="d" x1="841.96" x2="878.83" y1="189.88" y2="110.58" gradientUnits="userSpaceOnUse" xlink:href="#a" spreadMethod="reflect"/>
  <linearGradient id="c" x1="885.91" x2="939.73" y1="120.16" y2="162.59" gradientUnits="userSpaceOnUse" xlink:href="#a" spreadMethod="reflect"/>
  <linearGradient id="b" x1="848.14" x2="904.66" y1="125.6" y2="90.245" gradientUnits="userSpaceOnUse" xlink:href="#a" spreadMethod="repeat"/>
 </defs>
 <g transform="matrix(2.8375 .04701 -.04701 2.8375 -2221.4 -211.53)" fill-rule="evenodd">
  <path d="m857.22 63.562c-7.303-0.51727-10.402-3.3959-12.379 9.2355-24.415-0.75364-26.873 1.4929-30.755 29.86 2.4578 3.4007 0.78396 7.9485-3.2749 10.35-8.458-4.8974-12.303 2.1048-13.149 9.8828-2.588 8.425-6.0241 16.704-7.7151 25.336 0.66535 6.9332 10.595-0.92051 5.9119 8.072-2.542 7.4292 0.47443 16.922 6.4372 22.351-1.9352 9.1662 6.176 25.547 24.035 35.587 4.4016-1.71 3.098-12.505 6.7816-7.0067 5.5801 5.8798-5.2038 10.69-2.8648 17.676 7.1816 6.9503 20.098-2.964 29.014-3.1137 8.7063-2.5936 16.827-7.2541 24.513-12.429 8.995 13.908 18.55 16.763 24.671 8.3929 5.762-4.8341 12.572-8.7028 17.562-14.292 4.3794-9.1646-18.111-7.0553-6.6515-14.214 3.6382-6.3366 11.521 5.2123 13.947-4.0636 1.003-6.626-6.123-14.028-5.5015-20.765 3.3796-11.887 6.5811-23.795 7.6824-36.578 4.7407-5.1069 11.004-9.7422 13.818-16.144-1.483-10.065-20.976-1.5779-23.065-11.169-5.5412-6.4472-7.4704-17.358-6.1419-25.277 3.5382-9.3904-8.6743-10.269-11.494-1.4388-3.855 4.4053-4.0687 12.404-9.6561 12.932-8.9776 0.29228-7.6285-12.751-11.769-18.531-12.545 1.963-18.817 2.2491-29.956-4.6535z" fill="#959595" fill-opacity=".5098"/>
  <path d="m868.57 84.286-42.487 9.6339-17.518 36.08-0.36161 30.701 17.094 36.621 16.143 6.9598 27.125 12.875 0.34375-15.688 10.388 8.1741 28.201-22.509 6.5134-11.219 15.621-64.134-39.629-10.344-4.9821 9.7679-16.451-26.92z" fill="url(#d)"/>
  <path d="m884.28 72.129-23.219 7.75 1.8125-2.75-38.594 1.4375-5.7187 22.156 13.594 22.844 22.687-34.281 40.875 29.281 21.438-22.125-23.594-5-9.2813-19.312zm39.281 35-4.0313 19.344c-3.7485-2.3159-7.3553-4.4484-8.8125-5.0312l7.2188 12.75-1.0625 5.2188-16.156-13.688-16.438 20.719 13.594 15 6.4062-3.8125v9.5l-4.2812 10v15.875l-18.562-7.2812-2.875 12.844 20.719 20 22.156-17.125-15.688-6.1562 20.688-19.562-18.156-20.469 12.562-7.5 1.3125 15.094 8.5625-29.281-4.375-2.8125 17.938-19.312-20.719-4.3125zm-74.281 6.4375-0.7187 15 29.312 11.438 1.4062-15-30-11.438zm-44.281 2.875-10 30.688 11.438-4.5625-5 27.438 12.594 5.125-6.875 15.594 17.844 18.562 1.75-9.125 8.25 0.5625 16.437 20-12.875-39.281-10.938 14.25 3.8125-19.969-10.719-15.719-2.3437 5.2812-9.875-23.531 4.375-1.75 6.4062 14.281 20.719-26.438-26.781 5.0938-2.5-4.375 15.719-7.125-21.438-5zm114.91 21.25 0.0938 0.15625 0.4062 4.5625-2.7187-2.3125 2.2187-2.4062zm-75.625 10.156-10 24.281 17.156 7.875 19.281-12.156-26.438-20z" fill="url(#c)"/>
  <path d="m851.01 66.429v18.562l20 8.5938 12.844-12.875-32.844-14.281zm64.281 4.2812-24.281 37.156 18.562 5.7188 11.438-11.438-7.1563-12.875 1.4375-18.562zm-82.875 24.281-24.281 25.719 35.719 20 8.5625-32.844-12.844-11.438-7.1562-1.4375zm34.313 22.875-1.4375 15.719-8.5625 12.844 17.125 5.7188 8.5625-34.281h-15.688zm-60 27.125-8.5938 17.156 11.438 22.844 28.562 2.875v-18.594l-31.406-24.281zm117.13 1.4375-37.125 12.844 35.688 22.875 1.4375-35.719zm-42.844 17.156-22.875 21.406-25.719 37.156 44.313-11.438 4.2813-47.125z" fill="url(#b)"/>
 </g>
</svg>
