<svg xmlns="http://www.w3.org/2000/svg" xmlns:xlink="http://www.w3.org/1999/xlink" version="1.1" viewBox="685.39 426.23 640 574.3" style="transform:scale(-1,1)">
	<g id="layer1">
		<g>
			<g style="fill:rgb(0,0,0); fill-opacity:1.0; stroke-linejoin: miter">
				<path d="M831.5617,426.9549Q828.13715,426.62964,824.6197,426.46045L824.1165,426.43628Q799.465,425.2501,777.5175,430.74927Q755.59406,435.74567,738.4113,447.02072Q721.7314,458.3202,711.3011,475.97177Q701.3741,493.64722,700.2121,517.79565L777.77454,540.6894Q778.4037,527.6092,788.9254,518.5344Q799.44714,509.4599,814.5398,510.18628Q815.5143,510.2331,816.46985,510.3238Q828.3408,511.4513,837.2947,519.34955Q846.49,527.3556,845.86096,540.43585Q845.4249,549.492,837.44275,558.184Q829.96375,566.90076,808.7075,578.9887Q798.35535,584.5415,789.41565,592.1795Q781.00305,599.3383,773.9302,610.0918Q767.38495,620.3662,763.18567,634.2832Q758.9862,648.2004,758.09045,666.8146L757.36414,681.9076L826.79016,685.2482Q827.0565,679.7142,827.8019,674.70764Q829.2682,665.19714,832.55273,659.80835Q841.75903,646.6367,852.2565,638.06494Q862.75415,629.4936,873.17883,622.43164Q883.5797,615.87244,893.4772,609.2891Q903.3507,603.209,911.35706,594.01324Q918.86035,584.7934,924.042,571.4276Q929.1991,558.56537,930.19165,537.93854Q931.35376,513.79016,923.7455,493.75787Q916.61597,474.25323,902.20105,459.4404Q888.26495,445.1548,868.5285,436.13727Q851.6463,428.86255,831.5617,426.9549 Z M824.56335,731.5324L755.64014,728.21564L752.29944,797.6417L821.2223,800.9587L824.56335,731.5324 Z"/>
			</g>
		</g>
		<g style="fill:rgb(255,177,133); fill-opacity:1.0; stroke-linejoin: miter">
			<path d="M705.33124,831.0328L703.184,833.0258Q685.698,848.9179,685.5162,858.33026Q684.4615,868.774,692.19275,885.4433Q686.13403,911.5516,690.25806,926.373Q693.3399,935.7404,700.83057,942.873Q705.3613,948.05963,723.9407,960.6768Q732.6397,974.2729,738.11633,978.5866Q744.4994,983.764,748.8449,985.227Q772.0888,993.55023,811.91547,979.25275Q852.96387,965.8252,938.4918,926.5283L936.25934,799.2025L873.5275,799.2931L846.1168,769.70306Q798.69403,782.27075,783.0523,781.3493Q774.9666,781.1235,768.63995,779.33734Q740.4884,769.2645,741.43555,770.36523Q729.6346,768.27966,724.727,769.3355Q710.96594,770.4378,706.10315,784.0511Q701.9426,793.35016,705.33124,831.0328"/>
		</g>
		<g style="fill:rgb(255,255,255); fill-opacity:1.0; stroke-linejoin: miter">
			<path d="M986.1459,799.3487L943.31024,799.349L900.4744,799.3497Q900.4745,881.0861,900.4746,962.8229Q943.3104,962.8234,986.146,962.8243Q986.146,881.08606,986.1459,799.3487"/>
		</g>
		<g style="fill:rgb(0,0,0); fill-opacity:1.0; stroke-linejoin: miter">
			<path d="M1325.3867,782.8503L1142.1616,782.8503L958.93604,782.8513Q958.93616,891.68756,958.9362,1000.5242Q1142.1616,1000.52374,1325.3867,1000.5239Q1325.3867,891.6871,1325.3867,782.8503"/>
		</g>
	</g>
</svg>